<svg xmlns="http://www.w3.org/2000/svg" width="210mm" height="297mm" viewBox="0 0 744.09448819 1052.3622047"><path d="M240.442 423.79v13.49h38.94l-.126-13.766c-2.408-.05-4.816-.1-7.223-.152-.04 1.94-.08 3.88-.118 5.82l-24.113.1-.118-5.768-7.242-.153v.43zM240.442 398.76v13.257h7.364v-5.682h24.198v5.682h7.364V398.34h-38.926v.42z" fill="#d40000"/><text style="line-height:125%;text-align:center" x="399.6" y="437.279" font-size="52.271" font-family="sans-serif" letter-spacing="0" word-spacing="0" text-anchor="middle"><tspan x="399.6" y="437.279" style="-inkscape-font-specification:COCOGOOSE" font-family="COCOGOOSE">Bracket</tspan></text><text y="469.41" x="400.637" style="line-height:125%;text-align:center" font-size="25.15" font-family="sans-serif" letter-spacing="0" word-spacing="0" text-anchor="middle"><tspan style="-inkscape-font-specification:COCOGOOSE" y="469.41" x="400.637" font-family="COCOGOOSE">bicycle tracking</tspan></text><path d="M322.584 336.648v13.488h38.94c-.04-4.588-.084-9.176-.126-13.765l-7.222-.15c-.04 1.94-.08 3.88-.118 5.818l-24.114.102c-.04-1.923-.078-3.846-.117-5.77-2.414-.05-4.828-.1-7.243-.152v.43zM322.584 311.618v13.256h7.365v-5.682h24.197v5.682h7.364v-13.677h-38.926v.42z"/></svg>