<?xml version="1.0" encoding="UTF-8" standalone="no"?>
<!-- Created with Inkscape (http://www.inkscape.org/) -->

<svg
   xmlns:dc="http://purl.org/dc/elements/1.1/"
   xmlns:cc="http://creativecommons.org/ns#"
   xmlns:rdf="http://www.w3.org/1999/02/22-rdf-syntax-ns#"
   xmlns:svg="http://www.w3.org/2000/svg"
   xmlns="http://www.w3.org/2000/svg"
   xmlns:sodipodi="http://sodipodi.sourceforge.net/DTD/sodipodi-0.dtd"
   xmlns:inkscape="http://www.inkscape.org/namespaces/inkscape"
   width="210mm"
   height="297mm"
   viewBox="0 0 744.09448819 1052.3622047"
   id="svg2"
   version="1.1"
   inkscape:version="0.91 r13725"
   sodipodi:docname="bracket logo text.svg">
  <defs
     id="defs4" />
  <sodipodi:namedview
     id="base"
     pagecolor="#ffffff"
     bordercolor="#666666"
     borderopacity="1.0"
     inkscape:pageopacity="0.0"
     inkscape:pageshadow="2"
     inkscape:zoom="2.8"
     inkscape:cx="329.95427"
     inkscape:cy="636.02015"
     inkscape:document-units="px"
     inkscape:current-layer="layer1"
     showgrid="false"
     inkscape:window-width="1920"
     inkscape:window-height="1013"
     inkscape:window-x="-9"
     inkscape:window-y="-9"
     inkscape:window-maximized="1" />
  <metadata
     id="metadata7">
    <rdf:RDF>
      <cc:Work
         rdf:about="">
        <dc:format>image/svg+xml</dc:format>
        <dc:type
           rdf:resource="http://purl.org/dc/dcmitype/StillImage" />
        <dc:title></dc:title>
      </cc:Work>
    </rdf:RDF>
  </metadata>
  <g
     inkscape:label="Layer 1"
     inkscape:groupmode="layer"
     id="layer1">
    <path
       style="fill:#000000"
       d="m 220.08398,416.73974 c 0,6.84641 0,13.69283 0,20.53924 19.76594,0 39.53187,0 59.29781,0 -0.0634,-6.98702 -0.12835,-13.97402 -0.19212,-20.96104 -3.66624,-0.077 -7.33245,-0.15461 -10.9987,-0.23092 -0.0602,2.95363 -0.11968,5.90727 -0.1796,8.86091 -12.23989,0.0517 -24.47979,0.10347 -36.71968,0.1552 -0.0595,-2.92839 -0.11882,-5.85679 -0.17835,-8.78519 -3.67645,-0.0779 -7.35291,-0.15523 -11.02936,-0.2328 0,0.2182 0,0.4364 0,0.6546 z"
       id="path4151"
       inkscape:connector-curvature="0"
       inkscape:export-xdpi="193.40601"
       inkscape:export-ydpi="193.40601" />
    <path
       style="fill:#000000"
       d="m 220.08398,378.62325 c 0,6.72876 0,13.45752 0,20.18628 3.7382,0 7.4764,0 11.2146,0 0,-2.88375 0,-5.76751 0,-8.65126 12.28265,0 24.56531,0 36.84796,0 0,2.88375 0,5.76751 0,8.65126 3.7382,0 7.4764,0 11.2146,0 0,-6.94237 0,-13.88474 0,-20.82711 -19.75905,0 -39.51811,0 -59.27716,0 l 0,0.32042 0,0.32041 z"
       id="path4147"
       inkscape:connector-curvature="0"
       inkscape:export-xdpi="193.40601"
       inkscape:export-ydpi="193.40601" />
    <rect
       style="opacity:1;fill:#aa0000;fill-opacity:1;stroke:none;stroke-width:3;stroke-linecap:round;stroke-linejoin:round;stroke-miterlimit:4;stroke-dasharray:6, 12;stroke-dashoffset:0;stroke-opacity:1"
       id="rect4165"
       width="13.637059"
       height="13.637059"
       x="254.58644"
       y="402.5076"
       inkscape:export-xdpi="193.40601"
       inkscape:export-ydpi="193.40601" />
    <text
       xml:space="preserve"
       style="font-style:normal;font-weight:normal;font-size:52.27109528px;line-height:125%;font-family:sans-serif;text-align:center;letter-spacing:0px;word-spacing:0px;text-anchor:middle;fill:#000000;fill-opacity:1;stroke:none;stroke-width:1px;stroke-linecap:butt;stroke-linejoin:miter;stroke-opacity:1"
       x="399.60037"
       y="437.27859"
       id="text4136"
       sodipodi:linespacing="125%"
       inkscape:export-xdpi="193.40601"
       inkscape:export-ydpi="193.40601"><tspan
         sodipodi:role="line"
         id="tspan4138"
         x="399.60037"
         y="437.27859"
         style="font-style:normal;font-variant:normal;font-weight:normal;font-stretch:normal;font-family:COCOGOOSE;-inkscape-font-specification:COCOGOOSE">Bracket</tspan></text>
  </g>
</svg>
