<?xml version="1.0" encoding="UTF-8" standalone="no"?>
<!-- Created with Inkscape (http://www.inkscape.org/) -->

<svg
   xmlns:dc="http://purl.org/dc/elements/1.1/"
   xmlns:cc="http://creativecommons.org/ns#"
   xmlns:rdf="http://www.w3.org/1999/02/22-rdf-syntax-ns#"
   xmlns:svg="http://www.w3.org/2000/svg"
   xmlns="http://www.w3.org/2000/svg"
   xmlns:sodipodi="http://sodipodi.sourceforge.net/DTD/sodipodi-0.dtd"
   xmlns:inkscape="http://www.inkscape.org/namespaces/inkscape"
   width="210mm"
   height="297mm"
   viewBox="0 0 744.09448819 1052.3622047"
   id="svg2"
   version="1.1"
   inkscape:version="0.91 r13725"
   sodipodi:docname="bracket logo text 2.svg">
  <defs
     id="defs4" />
  <sodipodi:namedview
     id="base"
     pagecolor="#ffffff"
     bordercolor="#666666"
     borderopacity="1.0"
     inkscape:pageopacity="0.0"
     inkscape:pageshadow="2"
     inkscape:zoom="2.8"
     inkscape:cx="396.0257"
     inkscape:cy="606.37729"
     inkscape:document-units="px"
     inkscape:current-layer="layer1"
     showgrid="false"
     inkscape:window-width="1920"
     inkscape:window-height="1013"
     inkscape:window-x="-9"
     inkscape:window-y="-9"
     inkscape:window-maximized="1" />
  <metadata
     id="metadata7">
    <rdf:RDF>
      <cc:Work
         rdf:about="">
        <dc:format>image/svg+xml</dc:format>
        <dc:type
           rdf:resource="http://purl.org/dc/dcmitype/StillImage" />
        <dc:title></dc:title>
      </cc:Work>
    </rdf:RDF>
  </metadata>
  <g
     inkscape:label="Layer 1"
     inkscape:groupmode="layer"
     id="layer1">
    <path
       style="fill:#d40000"
       d="m 240.44155,423.79108 c 0,4.49597 0,8.99194 0,13.4879 12.98008,0 25.96016,0 38.94024,0 -0.0417,-4.58831 -0.0842,-9.17659 -0.12616,-13.76489 -2.40759,-0.0505 -4.81514,-0.10156 -7.22273,-0.15165 -0.0395,1.93962 -0.0786,3.87925 -0.11795,5.81887 -8.0378,0.0339 -16.07561,0.0679 -24.11341,0.10192 -0.0391,-1.92305 -0.078,-3.84609 -0.11712,-5.76914 -2.41429,-0.0511 -4.82858,-0.10194 -7.24287,-0.15288 0,0.14329 0,0.28658 0,0.42987 z"
       id="path4151"
       inkscape:connector-curvature="0"
       inkscape:export-xdpi="162.93924"
       inkscape:export-ydpi="162.93924" />
    <path
       style="fill:#d40000"
       d="m 240.44155,398.76039 c 0,4.41871 0,8.83741 0,13.25612 2.45484,0 4.90967,0 7.36451,0 0,-1.89373 0,-3.78747 0,-5.6812 8.06589,0 16.13177,0 24.19766,0 0,1.89373 0,3.78747 0,5.6812 2.45484,0 4.90967,0 7.36451,0 0,-4.55899 0,-9.11797 0,-13.67695 -12.97556,0 -25.95112,0 -38.92668,0 l 0,0.21042 0,0.21041 z"
       id="path4147"
       inkscape:connector-curvature="0"
       inkscape:export-xdpi="162.93924"
       inkscape:export-ydpi="162.93924" />
    <text
       xml:space="preserve"
       style="font-style:normal;font-weight:normal;font-size:52.27109528px;line-height:125%;font-family:sans-serif;text-align:center;letter-spacing:0px;word-spacing:0px;text-anchor:middle;fill:#000000;fill-opacity:1;stroke:none;stroke-width:1px;stroke-linecap:butt;stroke-linejoin:miter;stroke-opacity:1"
       x="399.60037"
       y="437.27859"
       id="text4136"
       sodipodi:linespacing="125%"
       inkscape:export-xdpi="162.93924"
       inkscape:export-ydpi="162.93924"><tspan
         sodipodi:role="line"
         id="tspan4138"
         x="399.60037"
         y="437.27859"
         style="font-style:normal;font-variant:normal;font-weight:normal;font-stretch:normal;font-family:COCOGOOSE;-inkscape-font-specification:COCOGOOSE">Bracket</tspan></text>
    <text
       inkscape:export-ydpi="162.93924"
       inkscape:export-xdpi="162.93924"
       sodipodi:linespacing="125%"
       id="text4138"
       y="463.59113"
       x="375.98706"
       style="font-style:normal;font-weight:normal;font-size:18.59296036px;line-height:125%;font-family:sans-serif;text-align:center;letter-spacing:0px;word-spacing:0px;text-anchor:middle;fill:#000000;fill-opacity:1;stroke:none;stroke-width:1px;stroke-linecap:butt;stroke-linejoin:miter;stroke-opacity:1"
       xml:space="preserve"><tspan
         style="font-style:normal;font-variant:normal;font-weight:normal;font-stretch:normal;font-family:COCOGOOSE;-inkscape-font-specification:COCOGOOSE"
         y="463.59113"
         x="375.98706"
         id="tspan4140"
         sodipodi:role="line">bicycle tracking interface</tspan></text>
    <path
       inkscape:export-ydpi="184.89999"
       inkscape:export-xdpi="184.89999"
       inkscape:connector-curvature="0"
       id="path4142"
       d="m 322.58441,336.64822 c 0,4.49597 0,8.99194 0,13.4879 12.98008,0 25.96016,0 38.94024,0 -0.0417,-4.58831 -0.0842,-9.17659 -0.12616,-13.76489 -2.40759,-0.0505 -4.81514,-0.10156 -7.22273,-0.15165 -0.0395,1.93962 -0.0786,3.87925 -0.11795,5.81887 -8.0378,0.0339 -16.07561,0.0679 -24.11341,0.10192 -0.0391,-1.92305 -0.078,-3.84609 -0.11712,-5.76914 -2.41429,-0.0511 -4.82858,-0.10194 -7.24287,-0.15288 0,0.14329 0,0.28658 0,0.42987 z"
       style="fill:#000000" />
    <path
       inkscape:export-ydpi="184.89999"
       inkscape:export-xdpi="184.89999"
       inkscape:connector-curvature="0"
       id="path4144"
       d="m 322.58441,311.61753 c 0,4.41871 0,8.83741 0,13.25612 2.45484,0 4.90967,0 7.36451,0 0,-1.89373 0,-3.78747 0,-5.6812 8.06589,0 16.13177,0 24.19766,0 0,1.89373 0,3.78747 0,5.6812 2.45484,0 4.90967,0 7.36451,0 0,-4.55899 0,-9.11797 0,-13.67695 -12.97556,0 -25.95112,0 -38.92668,0 l 0,0.21042 0,0.21041 z"
       style="fill:#000000" />
  </g>
</svg>
